<svg xmlns="http://www.w3.org/2000/svg">
    <symbol id="gts" viewBox="0 0 1000 1000">
      <a fill="#df8958" transform="translate(26 -4)">
        <path d="M875 572c49 42 40 102 10 129 14 129-72 124-85 75-43 55-73 35-78 32a431 431 0 0 1-479 0c-33 21-66 8-85-21-67 71-99-11-80-61-48-24-46-82 12-153q-3-23-3-46c0-136 93-286 211-313-77-50 4-110 86-50 28-68 97-68 99-9 107-2 167 38 220 66 29 15 64 32 105 33 50 3 76 56 23 98 31 52 44 105 44 220"/>
      </a>
      <a transform="translate(26 -4)">
        <path fill="#e68933" d="M743 326c36 0 58 11 117-19q-2 22-29 45l6 10c-47-4-79-21-94-36"/>
      </a>
      <path fill="#e68933" d="M808 622c11 46 57 77 103 76 14 129-72 123-86 74-42 55-72 35-78 32-51 37-136 72-240 72-90 0-173-27-239-72-32 21-65 9-84-21-68 71-100-10-80-61-49-24-47-82 12-153q-4-22-4-46c0-136 94-286 212-313-31-20-36-41-27-56 12 31 53 59 102 62-119 38-83 85-18 120 88 139 421 197 427 286"/>
      <path fill="#e8e7e5" d="M361 332q-33-1-70 12c-59 22-90 71-103 125 38-27 69-44 131-47 101-5 137 69 137 100 1 34-13 54-39 68-30 17-92 20-109 19-44 0-71-8-122-19 28 142 163 229 323 229s295-87 323-229c-51 11-78 19-122 19-17 1-79-2-109-19a69 69 0 0 1-39-68c0-31 35-105 137-100 62 3 93 20 131 47-13-54-44-103-103-125-101-37-169 19-218 20-37-1-84-32-148-32m475 176v2zm1 9v14zm0 27v2zm0 8v2zm-4 30v2zM188 469"/>
      <path fill="#d3d0d6" d="M359 332q-32-1-68 12c-59 22-90 71-103 125q24-18 50-30c15-46 58-86 135-107zm-83 275c-27-2-52-9-90-17 28 142 163 229 323 229 139 0 259-66 307-176-220 172-445 90-540-36m-93-38-1-1zm-2-23v-1zm0-23v-3zm0-3v-5zm0-5v-2zm0-2 1-5zm3-25v-1zm3-16v1zm-1 8"/>
      <path fill="#77889b" d="M456 522c0-31-36-105-137-100-62 3-93 20-131 47a282 282 0 0 0-2 121c51 11 78 19 122 19 17 1 79-2 109-19 26-14 40-34 39-68m106 0c0-31 35-105 137-100 62 3 93 20 131 47a282 282 0 0 1 2 121c-51 11-78 19-122 19-17 1-79-2-109-19a69 69 0 0 1-39-68"/>
      <path fill="#5e6f7e" d="M237 440q-24 12-49 30a282 282 0 0 0-2 120c38 9 63 15 91 18-37-47-54-110-40-168"/>
      <path fill="#333a42" d="M418 531c0 24-23 29-32 8q-8-20-31-19c-12 0-24 11-27 19-6 19-32 16-33-4 0-28 27-55 61-57s62 29 62 53m122 63q3-3 4-8t-2-9l-5-4-7-1q-10-3-21-2l-28 3-5 4q-3 5-2 9 1 5 4 8 5 8 14 9 8 2 17 2 9 1 17-2 9-2 14-9m-3 70q19 3 34-7l6-6q2-3 1-8-1-3-5-5-3-2-8-1l-5 2q-10 4-21 4-12-1-21-7-5-3-9-9l-9 9q-10 6-21 7-11 0-22-4l-5-2q-3-1-7 1t-5 5q-1 5 1 8l6 6q15 10 34 7 16-1 28-10 13 9 28 10m63-133c0 24 23 29 32 8q8-20 31-19c12 0 24 11 26 19 6 20 33 16 33-3 1-29-26-56-60-58s-62 29-62 53"/>
    </symbol>
    <symbol id="planet" fill="currentcolor" viewBox="0 0 256 256">
        <path d="M216,128a88,88,0,1,1-88-88A88,88,0,0,1,216,128Z" opacity="0.2"></path>
        <path d="M245.11,60.68c-7.65-13.19-27.84-16.16-58.5-8.66A95.93,95.93,0,0,0,32,128a98,98,0,0,0,.78,12.31C5.09,169,5.49,186,10.9,195.32,16,204.16,26.64,208,40.64,208a124.11,124.11,0,0,0,28.79-4A95.93,95.93,0,0,0,224,128a97.08,97.08,0,0,0-.77-12.25c12.5-13,20.82-25.35,23.65-35.92C248.83,72.51,248.24,66.07,245.11,60.68ZM128,48a80.11,80.11,0,0,1,78,62.2c-17.06,16.06-40.15,32.53-62.07,45.13C116.38,171.14,92.48,181,73.42,186.4A79.94,79.94,0,0,1,128,48ZM24.74,187.29c-1.46-2.51-.65-7.24,2.22-13a79.05,79.05,0,0,1,10.29-15.05,96,96,0,0,0,18,31.32C38,193.46,27.24,191.61,24.74,187.29ZM128,208a79.45,79.45,0,0,1-38.56-9.94,370,370,0,0,0,62.43-28.86c21.58-12.39,40.68-25.82,56.07-39.08A80.07,80.07,0,0,1,128,208ZM231.42,75.69c-1.7,6.31-6.19,13.53-12.63,21.13a95.69,95.69,0,0,0-18-31.35c14.21-2.35,27.37-2.17,30.5,3.24C232.19,70.28,232.24,72.63,231.42,75.69Z"></path>
    </symbol>
    <symbol id="house-line" fill="currentcolor" viewBox="0 0 256 256">
        <path d="M216,116.69V216H152V152H104v64H40V116.69l82.34-82.35a8,8,0,0,1,11.32,0Z" opacity="0.2"></path>
        <path d="M240,208H224V136l2.34,2.34A8,8,0,0,0,237.66,127L139.31,28.68a16,16,0,0,0-22.62,0L18.34,127a8,8,0,0,0,11.32,11.31L32,136v72H16a8,8,0,0,0,0,16H240a8,8,0,0,0,0-16ZM48,120l80-80,80,80v88H160V152a8,8,0,0,0-8-8H104a8,8,0,0,0-8,8v56H48Zm96,88H112V160h32Z"></path>
    </symbol>
    <symbol id="gear" fill="currentcolor" viewBox="0 0 256 256">
        <path d="M207.86,123.18l16.78-21a99.14,99.14,0,0,0-10.07-24.29l-26.7-3a81,81,0,0,0-6.81-6.81l-3-26.71a99.43,99.43,0,0,0-24.3-10l-21,16.77a81.59,81.59,0,0,0-9.64,0l-21-16.78A99.14,99.14,0,0,0,77.91,41.43l-3,26.7a81,81,0,0,0-6.81,6.81l-26.71,3a99.43,99.43,0,0,0-10,24.3l16.77,21a81.59,81.59,0,0,0,0,9.64l-16.78,21a99.14,99.14,0,0,0,10.07,24.29l26.7,3a81,81,0,0,0,6.81,6.81l3,26.71a99.43,99.43,0,0,0,24.3,10l21-16.77a81.59,81.59,0,0,0,9.64,0l21,16.78a99.14,99.14,0,0,0,24.29-10.07l3-26.7a81,81,0,0,0,6.81-6.81l26.71-3a99.43,99.43,0,0,0,10-24.3l-16.77-21A81.59,81.59,0,0,0,207.86,123.18ZM128,168a40,40,0,1,1,40-40A40,40,0,0,1,128,168Z" opacity="0.2"></path>
        <path d="M128,80a48,48,0,1,0,48,48A48.05,48.05,0,0,0,128,80Zm0,80a32,32,0,1,1,32-32A32,32,0,0,1,128,160Zm88-29.84q.06-2.16,0-4.32l14.92-18.64a8,8,0,0,0,1.48-7.06,107.6,107.6,0,0,0-10.88-26.25,8,8,0,0,0-6-3.93l-23.72-2.64q-1.48-1.56-3-3L186,40.54a8,8,0,0,0-3.94-6,107.29,107.29,0,0,0-26.25-10.86,8,8,0,0,0-7.06,1.48L130.16,40Q128,40,125.84,40L107.2,25.11a8,8,0,0,0-7.06-1.48A107.6,107.6,0,0,0,73.89,34.51a8,8,0,0,0-3.93,6L67.32,64.27q-1.56,1.49-3,3L40.54,70a8,8,0,0,0-6,3.94,107.71,107.71,0,0,0-10.87,26.25,8,8,0,0,0,1.49,7.06L40,125.84Q40,128,40,130.16L25.11,148.8a8,8,0,0,0-1.48,7.06,107.6,107.6,0,0,0,10.88,26.25,8,8,0,0,0,6,3.93l23.72,2.64q1.49,1.56,3,3L70,215.46a8,8,0,0,0,3.94,6,107.71,107.71,0,0,0,26.25,10.87,8,8,0,0,0,7.06-1.49L125.84,216q2.16.06,4.32,0l18.64,14.92a8,8,0,0,0,7.06,1.48,107.21,107.21,0,0,0,26.25-10.88,8,8,0,0,0,3.93-6l2.64-23.72q1.56-1.48,3-3L215.46,186a8,8,0,0,0,6-3.94,107.71,107.71,0,0,0,10.87-26.25,8,8,0,0,0-1.49-7.06Zm-16.1-6.5a73.93,73.93,0,0,1,0,8.68,8,8,0,0,0,1.74,5.48l14.19,17.73a91.57,91.57,0,0,1-6.23,15L187,173.11a8,8,0,0,0-5.1,2.64,74.11,74.11,0,0,1-6.14,6.14,8,8,0,0,0-2.64,5.1l-2.51,22.58a91.32,91.32,0,0,1-15,6.23l-17.74-14.19a8,8,0,0,0-5-1.75h-.48a73.93,73.93,0,0,1-8.68,0,8.06,8.06,0,0,0-5.48,1.74L100.45,215.8a91.57,91.57,0,0,1-15-6.23L82.89,187a8,8,0,0,0-2.64-5.1,74.11,74.11,0,0,1-6.14-6.14,8,8,0,0,0-5.1-2.64L46.43,170.6a91.32,91.32,0,0,1-6.23-15l14.19-17.74a8,8,0,0,0,1.74-5.48,73.93,73.93,0,0,1,0-8.68,8,8,0,0,0-1.74-5.48L40.2,100.45a91.57,91.57,0,0,1,6.23-15L69,82.89a8,8,0,0,0,5.1-2.64,74.11,74.11,0,0,1,6.14-6.14A8,8,0,0,0,82.89,69L85.4,46.43a91.32,91.32,0,0,1,15-6.23l17.74,14.19a8,8,0,0,0,5.48,1.74,73.93,73.93,0,0,1,8.68,0,8.06,8.06,0,0,0,5.48-1.74L155.55,40.2a91.57,91.57,0,0,1,15,6.23L173.11,69a8,8,0,0,0,2.64,5.1,74.11,74.11,0,0,1,6.14,6.14,8,8,0,0,0,5.1,2.64l22.58,2.51a91.32,91.32,0,0,1,6.23,15l-14.19,17.74A8,8,0,0,0,199.87,123.66Z"></path>
    </symbol>
    <symbol id="users" fill="currentcolor" viewBox="0 0 256 256">
        <path d="M136,108A52,52,0,1,1,84,56,52,52,0,0,1,136,108Z" opacity="0.2"></path>
        <path d="M117.25,157.92a60,60,0,1,0-66.5,0A95.83,95.83,0,0,0,3.53,195.63a8,8,0,1,0,13.4,8.74,80,80,0,0,1,134.14,0,8,8,0,0,0,13.4-8.74A95.83,95.83,0,0,0,117.25,157.92ZM40,108a44,44,0,1,1,44,44A44.05,44.05,0,0,1,40,108Zm210.14,98.7a8,8,0,0,1-11.07-2.33A79.83,79.83,0,0,0,172,168a8,8,0,0,1,0-16,44,44,0,1,0-16.34-84.87,8,8,0,1,1-5.94-14.85,60,60,0,0,1,55.53,105.64,95.83,95.83,0,0,1,47.22,37.71A8,8,0,0,1,250.14,206.7Z"></path>
    </symbol>
    <symbol id="sign-out" fill="currentcolor" viewBox="0 0 256 256">
        <path d="M224,56V200a16,16,0,0,1-16,16H48V40H208A16,16,0,0,1,224,56Z" opacity="0.2"></path>
        <path d="M120,216a8,8,0,0,1-8,8H48a8,8,0,0,1-8-8V40a8,8,0,0,1,8-8h64a8,8,0,0,1,0,16H56V208h56A8,8,0,0,1,120,216Zm109.66-93.66-40-40a8,8,0,0,0-11.32,11.32L204.69,120H112a8,8,0,0,0,0,16h92.69l-26.35,26.34a8,8,0,0,0,11.32,11.32l40-40A8,8,0,0,0,229.66,122.34Z"></path>
    </symbol>
    <symbol id="hashtag" fill="currentcolor" viewBox="0 0 256 256">
        <path d="M165.82,96l-11.64,64h-64l11.64-64Z" opacity="0.2"></path>
        <path d="M224,88H175.4l8.47-46.57a8,8,0,0,0-15.74-2.86l-9,49.43H111.4l8.47-46.57a8,8,0,0,0-15.74-2.86L95.14,88H48a8,8,0,0,0,0,16H92.23L83.5,152H32a8,8,0,0,0,0,16H80.6l-8.47,46.57a8,8,0,0,0,6.44,9.3A7.79,7.79,0,0,0,80,224a8,8,0,0,0,7.86-6.57l9-49.43H144.6l-8.47,46.57a8,8,0,0,0,6.44,9.3A7.79,7.79,0,0,0,144,224a8,8,0,0,0,7.86-6.57l9-49.43H208a8,8,0,0,0,0-16H163.77l8.73-48H224a8,8,0,0,0,0-16Zm-76.5,64H99.77l8.73-48h47.73Z"></path>
    </symbol>
    <symbol id="magnifying-glass" fill="currentcolor" viewBox="0 0 256 256">
        <path d="M192,112a80,80,0,1,1-80-80A80,80,0,0,1,192,112Z" opacity="0.2"></path>
        <path d="M229.66,218.34,179.6,168.28a88.21,88.21,0,1,0-11.32,11.31l50.06,50.07a8,8,0,0,0,11.32-11.32ZM40,112a72,72,0,1,1,72,72A72.08,72.08,0,0,1,40,112Z"></path>
    </symbol>
    <symbol id="at" fill="currentcolor" viewBox="0 0 256 256">
        <path d="M224,128a96,96,0,1,1-96-96A96,96,0,0,1,224,128Z" opacity="0.2"></path>
        <path d="M128,24a104,104,0,0,0,0,208c21.51,0,44.1-6.48,60.43-17.33a8,8,0,0,0-8.86-13.33C166,210.38,146.21,216,128,216a88,88,0,1,1,88-88c0,26.45-10.88,32-20,32s-20-5.55-20-32V88a8,8,0,0,0-16,0v4.26a48,48,0,1,0,5.93,65.1c6,12,16.35,18.64,30.07,18.64,22.54,0,36-17.94,36-48A104.11,104.11,0,0,0,128,24Zm0,136a32,32,0,1,1,32-32A32,32,0,0,1,128,160Z"></path>
    </symbol>
    <symbol id="bookmarks" fill="currentcolor" viewBox="0 0 256 256">
        <path d="M200,40V192l-32-22.85V72a8,8,0,0,0-8-8H88V40a8,8,0,0,1,8-8h96A8,8,0,0,1,200,40Z" opacity="0.2"></path>
        <path d="M192,24H96A16,16,0,0,0,80,40V56H64A16,16,0,0,0,48,72V224a8,8,0,0,0,12.65,6.51L112,193.83l51.36,36.68A8,8,0,0,0,176,224V184.69l19.35,13.82A8,8,0,0,0,208,192V40A16,16,0,0,0,192,24ZM160,208.46l-43.36-31a8,8,0,0,0-9.3,0L64,208.45V72h96Zm32-32L176,165V72a16,16,0,0,0-16-16H96V40h96Z"></path>
    </symbol>
    <symbol id="star" fill="currentcolor" viewBox="0 0 256 256">
        <path d="M229.06,108.79l-48.7,42,14.88,62.79a8.4,8.4,0,0,1-12.52,9.17L128,189.09,73.28,222.74a8.4,8.4,0,0,1-12.52-9.17l14.88-62.79-48.7-42A8.46,8.46,0,0,1,31.73,94L95.64,88.8l24.62-59.6a8.36,8.36,0,0,1,15.48,0l24.62,59.6L224.27,94A8.46,8.46,0,0,1,229.06,108.79Z" opacity="0.2"></path>
        <path d="M239.18,97.26A16.38,16.38,0,0,0,224.92,86l-59-4.76L143.14,26.15a16.36,16.36,0,0,0-30.27,0L90.11,81.23,31.08,86a16.46,16.46,0,0,0-9.37,28.86l45,38.83L53,211.75a16.38,16.38,0,0,0,24.5,17.82L128,198.49l50.53,31.08A16.4,16.4,0,0,0,203,211.75l-13.76-58.07,45-38.83A16.43,16.43,0,0,0,239.18,97.26Zm-15.34,5.47-48.7,42a8,8,0,0,0-2.56,7.91l14.88,62.8a.37.37,0,0,1-.17.48c-.18.14-.23.11-.38,0l-54.72-33.65a8,8,0,0,0-8.38,0L69.09,215.94c-.15.09-.19.12-.38,0a.37.37,0,0,1-.17-.48l14.88-62.8a8,8,0,0,0-2.56-7.91l-48.7-42c-.12-.1-.23-.19-.13-.5s.18-.27.33-.29l63.92-5.16A8,8,0,0,0,103,91.86l24.62-59.61c.08-.17.11-.25.35-.25s.27.08.35.25L153,91.86a8,8,0,0,0,6.75,4.92l63.92,5.16c.15,0,.24,0,.33.29S224,102.63,223.84,102.73Z"></path>
    </symbol>
    <symbol id="list" fill="currentcolor" viewBox="0 0 256 256">
        <path d="M216,64V192H40V64Z" opacity="0.2"></path>
        <path d="M224,128a8,8,0,0,1-8,8H40a8,8,0,0,1,0-16H216A8,8,0,0,1,224,128ZM40,72H216a8,8,0,0,0,0-16H40a8,8,0,0,0,0,16ZM216,184H40a8,8,0,0,0,0,16H216a8,8,0,0,0,0-16Z"></path>
    </symbol>
    <symbol id="bell" fill="currentcolor" viewBox="0 0 256 256">
        <path d="M208,192H48a8,8,0,0,1-6.88-12C47.71,168.6,56,139.81,56,104a72,72,0,0,1,144,0c0,35.82,8.3,64.6,14.9,76A8,8,0,0,1,208,192Z" opacity="0.2"></path>
        <path d="M221.8,175.94C216.25,166.38,208,139.33,208,104a80,80,0,1,0-160,0c0,35.34-8.26,62.38-13.81,71.94A16,16,0,0,0,48,200H88.81a40,40,0,0,0,78.38,0H208a16,16,0,0,0,13.8-24.06ZM128,216a24,24,0,0,1-22.62-16h45.24A24,24,0,0,1,128,216ZM48,184c7.7-13.24,16-43.92,16-80a64,64,0,1,1,128,0c0,36.05,8.28,66.73,16,80Z"></path>
    </symbol>
    <svg id="bell-slash" fill="currentcolor" viewBox="0 0 256 256">
        <path d="M208,192H48a8,8,0,0,1-6.88-12C47.71,168.6,56,139.81,56,104a72,72,0,0,1,144,0c0,35.82,8.3,64.6,14.9,76A8,8,0,0,1,208,192Z" opacity="0.2"></path>
        <path d="M53.92,34.62A8,8,0,1,0,42.08,45.38L58.82,63.8A79.59,79.59,0,0,0,48,104c0,35.34-8.26,62.38-13.81,71.94A16,16,0,0,0,48,200H88.8a40,40,0,0,0,78.4,0h15.44l19.44,21.38a8,8,0,1,0,11.84-10.76ZM128,216a24,24,0,0,1-22.62-16h45.24A24,24,0,0,1,128,216ZM48,184c7.7-13.24,16-43.92,16-80a63.65,63.65,0,0,1,6.26-27.62L168.09,184Zm166-4.73a8.13,8.13,0,0,1-2.93.55,8,8,0,0,1-7.44-5.08C196.35,156.19,192,129.75,192,104A64,64,0,0,0,96.43,48.31a8,8,0,0,1-7.9-13.91A80,80,0,0,1,208,104c0,35.35,8.05,58.59,10.52,64.88A8,8,0,0,1,214,179.25Z"></path>
    </svg>
    <symbol id="bell-ringing" fill="currentcolor" viewBox="0 0 256 256">
        <path d="M208,192H48a8,8,0,0,1-6.88-12C47.71,168.6,56,147.81,56,112a72,72,0,0,1,144,0c0,35.82,8.3,56.6,14.9,68A8,8,0,0,1,208,192Z" opacity="0.2"></path>
        <path d="M224,71.1a8,8,0,0,1-10.78-3.42,94.13,94.13,0,0,0-33.46-36.91,8,8,0,1,1,8.54-13.54,111.46,111.46,0,0,1,39.12,43.09A8,8,0,0,1,224,71.1ZM35.71,72a8,8,0,0,0,7.1-4.32A94.13,94.13,0,0,1,76.27,30.77a8,8,0,1,0-8.54-13.54A111.46,111.46,0,0,0,28.61,60.32,8,8,0,0,0,35.71,72Zm186.1,103.94A16,16,0,0,1,208,200H167.2a40,40,0,0,1-78.4,0H48a16,16,0,0,1-13.79-24.06C43.22,160.39,48,138.28,48,112a80,80,0,0,1,160,0C208,138.27,212.78,160.38,221.81,175.94ZM150.62,200H105.38a24,24,0,0,0,45.24,0ZM208,184c-10.64-18.27-16-42.49-16-72a64,64,0,0,0-128,0c0,29.52-5.38,53.74-16,72Z"></path>
    </symbol>
    <symbol id="slider-horizontal" fill="currentcolor" viewBox="0 0 256 256">
        <path d="M128,80a24,24,0,1,1-24-24A24,24,0,0,1,128,80Zm40,72a24,24,0,1,0,24,24A24,24,0,0,0,168,152Z" opacity="0.2"></path>
        <path d="M40,88H73a32,32,0,0,0,62,0h81a8,8,0,0,0,0-16H135a32,32,0,0,0-62,0H40a8,8,0,0,0,0,16Zm64-24A16,16,0,1,1,88,80,16,16,0,0,1,104,64ZM216,168H199a32,32,0,0,0-62,0H40a8,8,0,0,0,0,16h97a32,32,0,0,0,62,0h17a8,8,0,0,0,0-16Zm-48,24a16,16,0,1,1,16-16A16,16,0,0,1,168,192Z"></path>
    </symbol>
    <symbol id="user-circle" fill="currentcolor" viewBox="0 0 256 256">
        <path d="M224,128a95.76,95.76,0,0,1-31.8,71.37A72,72,0,0,0,128,160a40,40,0,1,0-40-40,40,40,0,0,0,40,40,72,72,0,0,0-64.2,39.37h0A96,96,0,1,1,224,128Z" opacity="0.2"></path>
        <path d="M128,24A104,104,0,1,0,232,128,104.11,104.11,0,0,0,128,24ZM74.08,197.5a64,64,0,0,1,107.84,0,87.83,87.83,0,0,1-107.84,0ZM96,120a32,32,0,1,1,32,32A32,32,0,0,1,96,120Zm97.76,66.41a79.66,79.66,0,0,0-36.06-28.75,48,48,0,1,0-59.4,0,79.66,79.66,0,0,0-36.06,28.75,88,88,0,1,1,131.52,0Z"></path>
    </symbol>
    <symbol id="eraser" fill="currentcolor" viewBox="0 0 256 256">
        <path d="M160,168l-48,48H66.75L36.69,185.94a16,16,0,0,1,0-22.63L96,104Z" opacity="0.2"></path>
        <path d="M225,80.4,183.6,39a24,24,0,0,0-33.94,0L31,157.66a24,24,0,0,0,0,33.94l30.06,30.06A8,8,0,0,0,66.74,224H216a8,8,0,0,0,0-16h-84.7L225,114.34A24,24,0,0,0,225,80.4ZM108.68,208H70.05L42.33,180.28a8,8,0,0,1,0-11.31L96,115.31,148.69,168Zm105-105L160,156.69,107.31,104,161,50.34a8,8,0,0,1,11.32,0l41.38,41.38a8,8,0,0,1,0,11.31Z"></path>
    </symbol>
    <symbol id="checks" fill="currentcolor" viewBox="0 0 256 256">
        <path d="M240,64V192a16,16,0,0,1-16,16H32a16,16,0,0,1-16-16V64A16,16,0,0,1,32,48H224A16,16,0,0,1,240,64Z" opacity="0.2"></path>
        <path d="M149.61,85.71l-89.6,88a8,8,0,0,1-11.22,0L10.39,136a8,8,0,1,1,11.22-11.41L54.4,156.79l84-82.5a8,8,0,1,1,11.22,11.42Zm96.1-11.32a8,8,0,0,0-11.32-.1l-84,82.5-18.83-18.5a8,8,0,0,0-11.21,11.42l24.43,24a8,8,0,0,0,11.22,0l89.6-88A8,8,0,0,0,245.71,74.39Z"></path>
    </symbol>
    <symbol id="asterisk" fill="currentcolor" viewBox="0 0 256 256">
        <path d="M200,128a72,72,0,1,1-72-72A72,72,0,0,1,200,128Z" opacity="0.2"></path>
        <path d="M214.86,180.12a8,8,0,0,1-11,2.74L136,142.13V216a8,8,0,0,1-16,0V142.13L52.12,182.86a8,8,0,1,1-8.23-13.72L112.45,128,43.89,86.86a8,8,0,1,1,8.23-13.72L120,113.87V40a8,8,0,0,1,16,0v73.87l67.88-40.73a8,8,0,1,1,8.23,13.72L143.55,128l68.56,41.14A8,8,0,0,1,214.86,180.12Z"></path>
    </symbol>
    <symbol id="user-plus" fill="currentcolor" viewBox="0 0 256 256">
        <path d="M168,100a60,60,0,1,1-60-60A60,60,0,0,1,168,100Z" opacity="0.2"></path>
        <path d="M256,136a8,8,0,0,1-8,8H232v16a8,8,0,0,1-16,0V144H200a8,8,0,0,1,0-16h16V112a8,8,0,0,1,16,0v16h16A8,8,0,0,1,256,136Zm-57.87,58.85a8,8,0,0,1-12.26,10.3C165.75,181.19,138.09,168,108,168s-57.75,13.19-77.87,37.15a8,8,0,0,1-12.25-10.3c14.94-17.78,33.52-30.41,54.17-37.17a68,68,0,1,1,71.9,0C164.6,164.44,183.18,177.07,198.13,194.85ZM108,152a52,52,0,1,0-52-52A52.06,52.06,0,0,0,108,152Z"></path>
    </symbol>
    <symbol id="dots-three-outline" fill="currentcolor" viewBox="0 0 256 256">
        <path d="M152,128a24,24,0,1,1-24-24A24,24,0,0,1,152,128ZM48,104a24,24,0,1,0,24,24A24,24,0,0,0,48,104Zm160,0a24,24,0,1,0,24,24A24,24,0,0,0,208,104Z" opacity="0.2"></path>
        <path d="M128,96a32,32,0,1,0,32,32A32,32,0,0,0,128,96Zm0,48a16,16,0,1,1,16-16A16,16,0,0,1,128,144ZM48,96a32,32,0,1,0,32,32A32,32,0,0,0,48,96Zm0,48a16,16,0,1,1,16-16A16,16,0,0,1,48,144ZM208,96a32,32,0,1,0,32,32A32,32,0,0,0,208,96Zm0,48a16,16,0,1,1,16-16A16,16,0,0,1,208,144Z"></path>
    </symbol>
    <symbol id="x-circle" fill="currentcolor" viewBox="0 0 256 256">
        <path d="M224,128a96,96,0,1,1-96-96A96,96,0,0,1,224,128Z" opacity="0.2"></path>
        <path d="M165.66,101.66,139.31,128l26.35,26.34a8,8,0,0,1-11.32,11.32L128,139.31l-26.34,26.35a8,8,0,0,1-11.32-11.32L116.69,128,90.34,101.66a8,8,0,0,1,11.32-11.32L128,116.69l26.34-26.35a8,8,0,0,1,11.32,11.32ZM232,128A104,104,0,1,1,128,24,104.11,104.11,0,0,1,232,128Zm-16,0a88,88,0,1,0-88,88A88.1,88.1,0,0,0,216,128Z"></path>
    </symbol>
    <symbol id="caret-circle-double-up" fill="currentcolor" viewBox="0 0 256 256">
        <path d="M195.88,195.88a96,96,0,1,1,0-135.76A96,96,0,0,1,195.88,195.88Z" opacity="0.2"></path>
        <path d="M201.54,54.46A104,104,0,0,0,54.46,201.54,104,104,0,0,0,201.54,54.46ZM190.23,190.23a88,88,0,1,1,0-124.46A88.11,88.11,0,0,1,190.23,190.23Zm-24.57-27.89a8,8,0,0,1-11.32,11.32L128,147.31l-26.34,26.35a8,8,0,0,1-11.32-11.32l32-32a8,8,0,0,1,11.32,0Zm0-56a8,8,0,0,1-11.32,11.32L128,91.31l-26.34,26.35a8,8,0,0,1-11.32-11.32l32-32a8,8,0,0,1,11.32,0Z"></path>
    </symbol>
    <symbol id="lock-simple" fill="currentcolor" viewBox="0 0 256 256">
        <path d="M216,96V208a8,8,0,0,1-8,8H48a8,8,0,0,1-8-8V96a8,8,0,0,1,8-8H208A8,8,0,0,1,216,96Z" opacity="0.2"></path>
        <path d="M208,80H176V56a48,48,0,0,0-96,0V80H48A16,16,0,0,0,32,96V208a16,16,0,0,0,16,16H208a16,16,0,0,0,16-16V96A16,16,0,0,0,208,80ZM96,56a32,32,0,0,1,64,0V80H96ZM208,208H48V96H208V208Z"></path>
    </symbol>
    <symbol id="lock-open-simple" fill="currentcolor" viewBox="0 0 256 256">
        <path d="M216,96V208a8,8,0,0,1-8,8H48a8,8,0,0,1-8-8V96a8,8,0,0,1,8-8H208A8,8,0,0,1,216,96Z" opacity="0.2"></path>
        <path d="M208,80H96V56a32,32,0,0,1,32-32c15.37,0,29.2,11,32.16,25.59a8,8,0,0,0,15.68-3.18C171.32,24.15,151.2,8,128,8A48.05,48.05,0,0,0,80,56V80H48A16,16,0,0,0,32,96V208a16,16,0,0,0,16,16H208a16,16,0,0,0,16-16V96A16,16,0,0,0,208,80Zm0,128H48V96H208V208Z"></path>
    </symbol>
    <symbol id="arrow-bend-up-left" fill="currentcolor" viewBox="0 0 256 256">
        <path d="M80,56v96L32,104Z" opacity="0.2"></path>
        <path d="M128,96H88V56a8,8,0,0,0-13.66-5.66l-48,48a8,8,0,0,0,0,11.32l48,48A8,8,0,0,0,88,152V112h40a88.1,88.1,0,0,1,88,88,8,8,0,0,0,16,0A104.11,104.11,0,0,0,128,96ZM72,132.69,43.31,104,72,75.31Z"></path>
    </symbol>
    <symbol id="arrow-bend-double-up-left" fill="currentcolor" viewBox="0 0 256 256">
        <path d="M128,56v96L80,104Z" opacity="0.2"></path>
        <path d="M85.66,146.34a8,8,0,0,1-11.32,11.32l-48-48a8,8,0,0,1,0-11.32l48-48A8,8,0,0,1,85.66,61.66L43.31,104ZM232,200a8,8,0,0,1-16,0,88.11,88.11,0,0,0-80-87.63V152a8,8,0,0,1-13.66,5.66l-48-48a8,8,0,0,1,0-11.32l48-48A8,8,0,0,1,136,56V96.3A104.15,104.15,0,0,1,232,200ZM120,75.31,91.31,104,120,132.69Z"></path>
    </symbol>
    <symbol id="image" fill="currentcolor" viewBox="0 0 256 256">
        <path d="M224,56V178.06l-39.72-39.72a8,8,0,0,0-11.31,0L147.31,164,97.66,114.34a8,8,0,0,0-11.32,0L32,168.69V56a8,8,0,0,1,8-8H216A8,8,0,0,1,224,56Z" opacity="0.2"></path>
        <path d="M216,40H40A16,16,0,0,0,24,56V200a16,16,0,0,0,16,16H216a16,16,0,0,0,16-16V56A16,16,0,0,0,216,40Zm0,16V158.75l-26.07-26.06a16,16,0,0,0-22.63,0l-20,20-44-44a16,16,0,0,0-22.62,0L40,149.37V56ZM40,172l52-52,80,80H40Zm176,28H194.63l-36-36,20-20L216,181.38V200ZM144,100a12,12,0,1,1,12,12A12,12,0,0,1,144,100Z"></path>
    </symbol>
    <symbol id="music-note" fill="currentcolor" viewBox="0 0 256 256">
        <path d="M128,184a40,40,0,1,1-40-40A40,40,0,0,1,128,184Z" opacity="0.2"></path>
        <path d="M210.3,56.34l-80-24A8,8,0,0,0,120,40V148.26A48,48,0,1,0,136,184V98.75l69.7,20.91A8,8,0,0,0,216,112V64A8,8,0,0,0,210.3,56.34ZM88,216a32,32,0,1,1,32-32A32,32,0,0,1,88,216ZM200,101.25l-64-19.2V50.75L200,70Z"></path>
    </symbol>
    <symbol id="film-strip" fill="currentcolor" viewBox="0 0 256 256">
        <path d="M32,176H224v24a8,8,0,0,1-8,8H40a8,8,0,0,1-8-8ZM216,48H40a8,8,0,0,0-8,8V80H224V56A8,8,0,0,0,216,48Z" opacity="0.2"></path>
        <path d="M216,40H40A16,16,0,0,0,24,56V200a16,16,0,0,0,16,16H216a16,16,0,0,0,16-16V56A16,16,0,0,0,216,40ZM40,88h80v80H40Zm96-16V56h32V72Zm-16,0H88V56h32Zm0,112v16H88V184Zm16,0h32v16H136Zm0-16V88h80v80Zm80-96H184V56h32ZM72,56V72H40V56ZM40,184H72v16H40Zm176,16H184V184h32v16Z"></path>
    </symbol>
    <symbol id="chart-bar-horizontal" fill="currentcolor" viewBox="0 0 256 256">
        <path d="M224,104v48H48V104Z" opacity="0.2"></path>
        <path d="M224,96H184V56a8,8,0,0,0-8-8H56V40a8,8,0,0,0-16,0V216a8,8,0,0,0,16,0v-8h88a8,8,0,0,0,8-8V160h72a8,8,0,0,0,8-8V104A8,8,0,0,0,224,96ZM168,64V96H56V64ZM136,192H56V160h80Zm80-48H56V112H216Z"></path>
    </symbol>
    <symbol id="link" fill="currentcolor" viewBox="0 0 256 256">
        <path d="M218.34,119.6,183.6,154.34a46.58,46.58,0,0,1-44.31,12.26c-.31.34-.62.67-.95,1L103.6,202.34A46.63,46.63,0,1,1,37.66,136.4L72.4,101.66A46.6,46.6,0,0,1,116.71,89.4c.31-.34.62-.67,1-1L152.4,53.66a46.63,46.63,0,0,1,65.94,65.94Z" opacity="0.2"></path>
        <path d="M240,88.23a54.43,54.43,0,0,1-16,37L189.25,160a54.27,54.27,0,0,1-38.63,16h-.05A54.63,54.63,0,0,1,96,119.84a8,8,0,0,1,16,.45A38.62,38.62,0,0,0,150.58,160h0a38.39,38.39,0,0,0,27.31-11.31l34.75-34.75a38.63,38.63,0,0,0-54.63-54.63l-11,11A8,8,0,0,1,135.7,59l11-11A54.65,54.65,0,0,1,224,48,54.86,54.86,0,0,1,240,88.23ZM109,185.66l-11,11A38.41,38.41,0,0,1,70.6,208h0a38.63,38.63,0,0,1-27.29-65.94L78,107.31A38.63,38.63,0,0,1,144,135.71a8,8,0,0,0,7.78,8.22H152a8,8,0,0,0,8-7.78A54.86,54.86,0,0,0,144,96a54.65,54.65,0,0,0-77.27,0L32,130.75A54.62,54.62,0,0,0,70.56,224h0a54.28,54.28,0,0,0,38.64-16l11-11A8,8,0,0,0,109,185.66Z"></path>
    </symbol>
    <symbol id="rocket-launch" fill="currentcolor" viewBox="0 0 256 256">
        <path d="M184,120v61.65a8,8,0,0,1-2.34,5.65l-34.35,34.35a8,8,0,0,1-13.57-4.53L128,176ZM136,72H74.35a8,8,0,0,0-5.65,2.34L34.35,108.69a8,8,0,0,0,4.53,13.57L80,128ZM40,216c37.65,0,50.69-19.69,54.56-28.18L68.18,161.44C59.69,165.31,40,178.35,40,216Z" opacity="0.2"></path>
        <path d="M223.85,47.12a16,16,0,0,0-15-15c-12.58-.75-44.73.4-71.41,27.07L132.69,64H74.36A15.91,15.91,0,0,0,63,68.68L28.7,103a16,16,0,0,0,9.07,27.16l38.47,5.37,44.21,44.21,5.37,38.49a15.94,15.94,0,0,0,10.78,12.92,16.11,16.11,0,0,0,5.1.83A15.91,15.91,0,0,0,153,227.3L187.32,193A15.91,15.91,0,0,0,192,181.64V123.31l4.77-4.77C223.45,91.86,224.6,59.71,223.85,47.12ZM74.36,80h42.33L77.16,119.52,40,114.34Zm74.41-9.45a76.65,76.65,0,0,1,59.11-22.47,76.46,76.46,0,0,1-22.42,59.16L128,164.68,91.32,128ZM176,181.64,141.67,216l-5.19-37.17L176,139.31Zm-74.16,9.5C97.34,201,82.29,224,40,224a8,8,0,0,1-8-8c0-42.29,23-57.34,32.86-61.85a8,8,0,0,1,6.64,14.56c-6.43,2.93-20.62,12.36-23.12,38.91,26.55-2.5,36-16.69,38.91-23.12a8,8,0,1,1,14.56,6.64Z"></path>
    </symbol>
    <symbol id="bookmark" fill="currentcolor" viewBox="0 0 256 256">
        <path d="M192,176v48l-64-40L64,224V176l64-40Z" opacity="0.2"></path>
        <path d="M184,32H72A16,16,0,0,0,56,48V224a8,8,0,0,0,12.24,6.78L128,193.43l59.77,37.35A8,8,0,0,0,200,224V48A16,16,0,0,0,184,32Zm0,16V161.57l-51.77-32.35a8,8,0,0,0-8.48,0L72,161.56V48ZM132.23,177.22a8,8,0,0,0-8.48,0L72,209.57V180.43l56-35,56,35v29.14Z"></path>
    </symbol>
    <symbol id="markdown-logo" fill="currentcolor" viewBox="0 0 256 256">
        <path d="M240,64V192a8,8,0,0,1-8,8H24a8,8,0,0,1-8-8V64a8,8,0,0,1,8-8H232A8,8,0,0,1,240,64Z" opacity="0.2"></path>
        <path d="M232,48H24A16,16,0,0,0,8,64V192a16,16,0,0,0,16,16H232a16,16,0,0,0,16-16V64A16,16,0,0,0,232,48Zm0,144H24V64H232V192ZM128,104v48a8,8,0,0,1-16,0V123.31L93.66,141.66a8,8,0,0,1-11.32,0L64,123.31V152a8,8,0,0,1-16,0V104a8,8,0,0,1,13.66-5.66L88,124.69l26.34-26.35A8,8,0,0,1,128,104Zm77.66,18.34a8,8,0,0,1,0,11.32l-24,24a8,8,0,0,1-11.32,0l-24-24a8,8,0,0,1,11.32-11.32L168,132.69V104a8,8,0,0,1,16,0v28.69l10.34-10.35A8,8,0,0,1,205.66,122.34Z"></path>
    </symbol>
    <symbol id="file-text" fill="currentcolor" viewBox="0 0 256 256">
        <path d="M208,88H152V32Z" opacity="0.2"></path>
        <path d="M213.66,82.34l-56-56A8,8,0,0,0,152,24H56A16,16,0,0,0,40,40V216a16,16,0,0,0,16,16H200a16,16,0,0,0,16-16V88A8,8,0,0,0,213.66,82.34ZM160,51.31,188.69,80H160ZM200,216H56V40h88V88a8,8,0,0,0,8,8h48V216Zm-32-80a8,8,0,0,1-8,8H96a8,8,0,0,1,0-16h64A8,8,0,0,1,168,136Zm0,32a8,8,0,0,1-8,8H96a8,8,0,0,1,0-16h64A8,8,0,0,1,168,168Z"></path>
    </symbol>
    <symbol id="paperclip"  fill="currentcolor" viewBox="0 0 256 256">
        <path d="M180.75,104.75,204,128l-82.06,81.94a48,48,0,0,1-67.88-67.88L153.37,41.37a32,32,0,0,1,45.26,45.26Z" opacity="0.2"></path>
        <path d="M209.66,122.34a8,8,0,0,1,0,11.32l-82.05,82a56,56,0,0,1-79.2-79.21L147.67,35.73a40,40,0,1,1,56.61,56.55L105,193A24,24,0,1,1,71,159L154.3,74.38A8,8,0,1,1,165.7,85.6L82.39,170.31a8,8,0,1,0,11.27,11.36L192.93,81A24,24,0,1,0,159,47L59.76,147.68a40,40,0,1,0,56.53,56.62l82.06-82A8,8,0,0,1,209.66,122.34Z"></path>
    </symbol>
    <symbol id="smiley" fill="currentcolor" viewBox="0 0 256 256">
        <path d="M224,128a96,96,0,1,1-96-96A96,96,0,0,1,224,128Z" opacity="0.2"></path>
        <path d="M128,24A104,104,0,1,0,232,128,104.11,104.11,0,0,0,128,24Zm0,192a88,88,0,1,1,88-88A88.1,88.1,0,0,1,128,216ZM80,108a12,12,0,1,1,12,12A12,12,0,0,1,80,108Zm96,0a12,12,0,1,1-12-12A12,12,0,0,1,176,108Zm-1.08,48c-10.29,17.79-27.39,28-46.92,28s-36.63-10.2-46.92-28a8,8,0,1,1,13.84-8c7.47,12.91,19.21,20,33.08,20s25.61-7.1,33.08-20a8,8,0,1,1,13.84,8Z"></path>
    </symbol>
    <symbol id="file-arrow-up" fill="currentcolor" viewBox="0 0 256 256">
        <path d="M208,88H152V32Z" opacity="0.2"></path>
        <path d="M213.66,82.34l-56-56A8,8,0,0,0,152,24H56A16,16,0,0,0,40,40V216a16,16,0,0,0,16,16H200a16,16,0,0,0,16-16V88A8,8,0,0,0,213.66,82.34ZM160,51.31,188.69,80H160ZM200,216H56V40h88V88a8,8,0,0,0,8,8h48V216Zm-42.34-77.66a8,8,0,0,1-11.32,11.32L136,139.31V184a8,8,0,0,1-16,0V139.31l-10.34,10.35a8,8,0,0,1-11.32-11.32l24-24a8,8,0,0,1,11.32,0Z"></path>
    </symbol>
    <symbol id="paint-brush" fill="currentcolor" viewBox="0 0 256 256">
        <path d="M224,32c0,32.81-31.64,67.43-58.64,91.05A84.39,84.39,0,0,0,133,90.64C156.57,63.64,191.19,32,224,32Z" opacity="0.2"></path>
        <path d="M232,32a8,8,0,0,0-8-8c-44.08,0-89.31,49.71-114.43,82.63A60,60,0,0,0,32,164c0,30.88-19.54,44.73-20.47,45.37A8,8,0,0,0,16,224H92a60,60,0,0,0,57.37-77.57C182.3,121.31,232,76.08,232,32ZM92,208H34.63C41.38,198.41,48,183.92,48,164a44,44,0,1,1,44,44Zm32.42-94.45q5.14-6.66,10.09-12.55A76.23,76.23,0,0,1,155,121.49q-5.9,4.94-12.55,10.09A60.54,60.54,0,0,0,124.42,113.55Zm42.7-2.68a92.57,92.57,0,0,0-22-22c31.78-34.53,55.75-45,69.9-47.91C212.17,55.12,201.65,79.09,167.12,110.87Z"></path>
    </symbol>
    <symbol id="eye" fill="currentcolor" viewBox="0 0 256 256">
        <path d="M128,56C48,56,16,128,16,128s32,72,112,72,112-72,112-72S208,56,128,56Zm0,112a40,40,0,1,1,40-40A40,40,0,0,1,128,168Z" opacity="0.2"></path>
        <path d="M247.31,124.76c-.35-.79-8.82-19.58-27.65-38.41C194.57,61.26,162.88,48,128,48S61.43,61.26,36.34,86.35C17.51,105.18,9,124,8.69,124.76a8,8,0,0,0,0,6.5c.35.79,8.82,19.57,27.65,38.4C61.43,194.74,93.12,208,128,208s66.57-13.26,91.66-38.34c18.83-18.83,27.3-37.61,27.65-38.4A8,8,0,0,0,247.31,124.76ZM128,192c-30.78,0-57.67-11.19-79.93-33.25A133.47,133.47,0,0,1,25,128,133.33,133.33,0,0,1,48.07,97.25C70.33,75.19,97.22,64,128,64s57.67,11.19,79.93,33.25A133.46,133.46,0,0,1,231.05,128C223.84,141.46,192.43,192,128,192Zm0-112a48,48,0,1,0,48,48A48.05,48.05,0,0,0,128,80Zm0,80a32,32,0,1,1,32-32A32,32,0,0,1,128,160Z"></path>
    </symbol>
    <symbol id="eye-slash" fill="currentcolor" viewBox="0 0 256 256">
        <path d="M128,56C48,56,16,128,16,128s32,72,112,72,112-72,112-72S208,56,128,56Zm0,112a40,40,0,1,1,40-40A40,40,0,0,1,128,168Z" opacity="0.2"></path>
        <path d="M53.92,34.62A8,8,0,1,0,42.08,45.38L61.32,66.55C25,88.84,9.38,123.2,8.69,124.76a8,8,0,0,0,0,6.5c.35.79,8.82,19.57,27.65,38.4C61.43,194.74,93.12,208,128,208a127.11,127.11,0,0,0,52.07-10.83l22,24.21a8,8,0,1,0,11.84-10.76Zm47.33,75.84,41.67,45.85a32,32,0,0,1-41.67-45.85ZM128,192c-30.78,0-57.67-11.19-79.93-33.25A133.16,133.16,0,0,1,25,128c4.69-8.79,19.66-33.39,47.35-49.38l18,19.75a48,48,0,0,0,63.66,70l14.73,16.2A112,112,0,0,1,128,192Zm6-95.43a8,8,0,0,1,3-15.72,48.16,48.16,0,0,1,38.77,42.64,8,8,0,0,1-7.22,8.71,6.39,6.39,0,0,1-.75,0,8,8,0,0,1-8-7.26A32.09,32.09,0,0,0,134,96.57Zm113.28,34.69c-.42.94-10.55,23.37-33.36,43.8a8,8,0,1,1-10.67-11.92A132.77,132.77,0,0,0,231.05,128a133.15,133.15,0,0,0-23.12-30.77C185.67,75.19,158.78,64,128,64a118.37,118.37,0,0,0-19.36,1.57A8,8,0,1,1,106,49.79,134,134,0,0,1,128,48c34.88,0,66.57,13.26,91.66,38.35,18.83,18.83,27.3,37.62,27.65,38.41A8,8,0,0,1,247.31,131.26Z"></path>
    </symbol>
    <symbol id="arrows-clockwise" fill="currentcolor" viewBox="0 0 256 256">
        <path d="M216,128a88,88,0,1,1-88-88A88,88,0,0,1,216,128Z" opacity="0.2"></path>
        <path d="M224,48V96a8,8,0,0,1-8,8H168a8,8,0,0,1,0-16h28.69L182.06,73.37a79.56,79.56,0,0,0-56.13-23.43h-.45A79.52,79.52,0,0,0,69.59,72.71,8,8,0,0,1,58.41,61.27a96,96,0,0,1,135,.79L208,76.69V48a8,8,0,0,1,16,0ZM186.41,183.29a80,80,0,0,1-112.47-.66L59.31,168H88a8,8,0,0,0,0-16H40a8,8,0,0,0-8,8v48a8,8,0,0,0,16,0V179.31l14.63,14.63A95.43,95.43,0,0,0,130,222.06h.53a95.36,95.36,0,0,0,67.07-27.33,8,8,0,0,0-11.18-11.44Z"></path>
    </symbol>
    <symbol id="chat-circle-text" fill="currentcolor" viewBox="0 0 256 256">
        <path d="M224,128A96,96,0,0,1,79.93,211.11h0L42.54,223.58a8,8,0,0,1-10.12-10.12l12.47-37.39h0A96,96,0,1,1,224,128Z" opacity="0.2"></path>
        <path d="M128,24A104,104,0,0,0,36.18,176.88L24.83,210.93a16,16,0,0,0,20.24,20.24l34.05-11.35A104,104,0,1,0,128,24Zm0,192a87.87,87.87,0,0,1-44.06-11.81,8,8,0,0,0-4-1.08,7.85,7.85,0,0,0-2.53.42L40,216,52.47,178.6a8,8,0,0,0-.66-6.54A88,88,0,1,1,128,216Zm40-104a8,8,0,0,1-8,8H96a8,8,0,0,1,0-16h64A8,8,0,0,1,168,112Zm0,32a8,8,0,0,1-8,8H96a8,8,0,0,1,0-16h64A8,8,0,0,1,168,144Z"></path>
    </symbol>
    <symbol id="push-pin" fill="currentcolor" viewBox="0 0 256 256">
        <path d="M229.66,98.34,172.39,155.8c11.46,22.93-1.72,45.86-10.11,57a8,8,0,0,1-12,.83L42.34,105.76A8,8,0,0,1,43,93.85c29.65-23.92,57.4-10,57.4-10l57.27-57.46a8,8,0,0,1,11.31,0L229.66,87A8,8,0,0,1,229.66,98.34Z" opacity="0.2"></path>
        <path d="M235.32,81.37,174.63,20.69a16,16,0,0,0-22.63,0L98.37,74.49c-10.66-3.34-35-7.37-60.4,13.14a16,16,0,0,0-1.29,23.78L85,159.71,42.34,202.34a8,8,0,0,0,11.32,11.32L96.29,171l48.29,48.29A16,16,0,0,0,155.9,224c.38,0,.75,0,1.13,0a15.93,15.93,0,0,0,11.64-6.33c19.64-26.1,17.75-47.32,13.19-60L235.33,104A16,16,0,0,0,235.32,81.37ZM224,92.69h0l-57.27,57.46a8,8,0,0,0-1.49,9.22c9.46,18.93-1.8,38.59-9.34,48.62L48,100.08c12.08-9.74,23.64-12.31,32.48-12.31A40.13,40.13,0,0,1,96.81,91a8,8,0,0,0,9.25-1.51L163.32,32,224,92.68Z"></path>
    </symbol>
    <symbol id="pencil-simple-line" fill="currentcolor" viewBox="0 0 256 256">
        <path d="M221.66,90.34,192,120,136,64l29.66-29.66a8,8,0,0,1,11.31,0L221.66,79A8,8,0,0,1,221.66,90.34Z" opacity="0.2"></path>
        <path d="M227.32,73.37,182.63,28.69a16,16,0,0,0-22.63,0L36.69,152A15.86,15.86,0,0,0,32,163.31V208a16,16,0,0,0,16,16H216a8,8,0,0,0,0-16H115.32l112-112A16,16,0,0,0,227.32,73.37ZM48,163.31l88-88L180.69,120l-88,88H48Zm144-54.62L147.32,64l24-24L216,84.69Z"></path>
    </symbol>
    <symbol id="speaker-simple-x" fill="currentcolor" viewBox="0 0 256 256">
        <path d="M160,32V224L88,168H40a8,8,0,0,1-8-8V96a8,8,0,0,1,8-8H88Z" opacity="0.2"></path>
        <path d="M163.51,24.81a8,8,0,0,0-8.42.88L85.25,80H40A16,16,0,0,0,24,96v64a16,16,0,0,0,16,16H85.25l69.84,54.31A8,8,0,0,0,168,224V32A8,8,0,0,0,163.51,24.81ZM152,207.64,92.91,161.69A7.94,7.94,0,0,0,88,160H40V96H88a7.94,7.94,0,0,0,4.91-1.69L152,48.36Zm101.66-61.3a8,8,0,0,1-11.32,11.32L224,139.31l-18.34,18.35a8,8,0,0,1-11.32-11.32L212.69,128l-18.35-18.34a8,8,0,0,1,11.32-11.32L224,116.69l18.34-18.35a8,8,0,0,1,11.32,11.32L235.31,128Z"></path>
    </symbol>
    <symbol id="prohibit" fill="currentcolor" viewBox="0 0 256 256">
        <path d="M224,128a96,96,0,1,1-96-96A96,96,0,0,1,224,128Z" opacity="0.2"></path>
        <path d="M128,24A104,104,0,1,0,232,128,104.11,104.11,0,0,0,128,24Zm88,104a87.56,87.56,0,0,1-20.41,56.28L71.72,60.4A88,88,0,0,1,216,128ZM40,128A87.56,87.56,0,0,1,60.41,71.72L184.28,195.6A88,88,0,0,1,40,128Z"></path>
    </symbol>
    <symbol id="network-slash" fill="currentcolor" viewBox="0 0 256 256">
        <path d="M88,176v32a8,8,0,0,1-8,8H48a8,8,0,0,1-8-8V176a8,8,0,0,1,8-8H80A8,8,0,0,1,88,176ZM144,32H112a8,8,0,0,0-8,8V72a8,8,0,0,0,8,8h32a8,8,0,0,0,8-8V40A8,8,0,0,0,144,32Z" opacity="0.2"></path>
        <path d="M96,54V40a16,16,0,0,1,16-16h32a16,16,0,0,1,16,16V72a16,16,0,0,1-16,16H127.61a8,8,0,0,1,0-16H144V40H112V54a8,8,0,0,1-16,0ZM213.92,210.62a8,8,0,1,1-11.84,10.76L117.19,128H72v32h8a16,16,0,0,1,16,16v32a16,16,0,0,1-16,16H48a16,16,0,0,1-16-16V176a16,16,0,0,1,16-16h8V128H24a8,8,0,0,1,0-16h78.64L42.08,45.38A8,8,0,1,1,53.92,34.62ZM80,176H48v32H80Zm152-64H164a8,8,0,0,0,0,16h20v22.83a8,8,0,1,0,16,0V128h32a8,8,0,0,0,0-16Z"></path>
    </symbol>
    <symbol id="keyboard" fill="currentcolor" viewBox="0 0 256 256">
        <path d="M232,64V192a8,8,0,0,1-8,8H32a8,8,0,0,1-8-8V64a8,8,0,0,1,8-8H224A8,8,0,0,1,232,64Z" opacity="0.2"></path>
        <path d="M224,48H32A16,16,0,0,0,16,64V192a16,16,0,0,0,16,16H224a16,16,0,0,0,16-16V64A16,16,0,0,0,224,48Zm0,144H32V64H224V192Zm-16-64a8,8,0,0,1-8,8H56a8,8,0,0,1,0-16H200A8,8,0,0,1,208,128Zm0-32a8,8,0,0,1-8,8H56a8,8,0,0,1,0-16H200A8,8,0,0,1,208,96ZM72,160a8,8,0,0,1-8,8H56a8,8,0,0,1,0-16h8A8,8,0,0,1,72,160Zm96,0a8,8,0,0,1-8,8H96a8,8,0,0,1,0-16h64A8,8,0,0,1,168,160Zm40,0a8,8,0,0,1-8,8h-8a8,8,0,0,1,0-16h8A8,8,0,0,1,208,160Z"></path>
    </symbol>
    <symbol id="signpost" fill="currentcolor" viewBox="0 0 256 256">
        <path d="M240,112l-33.62,37.35a8,8,0,0,1-5.94,2.65H40a8,8,0,0,1-8-8V80a8,8,0,0,1,8-8H200.44a8,8,0,0,1,5.94,2.65Z" opacity="0.2"></path>
        <path d="M246,106.65,212.33,69.3A16,16,0,0,0,200.44,64H136V32a8,8,0,0,0-16,0V64H40A16,16,0,0,0,24,80v64a16,16,0,0,0,16,16h80v64a8,8,0,0,0,16,0V160h64.44a16,16,0,0,0,11.89-5.3L246,117.35A8,8,0,0,0,246,106.65ZM200.44,144H40V80H200.44l28.8,32Z"></path>
    </symbol>
    <symbol id="arrow-left" fill="currentcolor" viewBox="0 0 256 256">
        <path d="M224,128a8,8,0,0,1-8,8H59.31l58.35,58.34a8,8,0,0,1-11.32,11.32l-72-72a8,8,0,0,1,0-11.32l72-72a8,8,0,0,1,11.32,11.32L59.31,120H216A8,8,0,0,1,224,128Z"></path>
    </symbol>
    <symbol id="x" fill="currentcolor" viewBox="0 0 256 256">
        <path d="M205.66,194.34a8,8,0,0,1-11.32,11.32L128,139.31,61.66,205.66a8,8,0,0,1-11.32-11.32L116.69,128,50.34,61.66A8,8,0,0,1,61.66,50.34L128,116.69l66.34-66.35a8,8,0,0,1,11.32,11.32L139.31,128Z"></path>
    </symbol>
    <symbol id="paint-bucket" fill="currentcolor" viewBox="0 0 256 256">
        <path d="M248,208a16,16,0,0,1-32,0c0-16,16-40,16-40S248,192,248,208Zm-16-76.52-24,8-79.83,79.83a16,16,0,0,1-22.63,0L20.69,134.46a16,16,0,0,1,0-22.63L116.52,16Zm-93.86-29.62a20,20,0,1,0,0,28.28A20,20,0,0,0,138.14,101.86Z" opacity="0.2"></path>
        <path d="M238.66,163.56a8,8,0,0,0-13.32,0C223.57,166.23,208,190.09,208,208a24,24,0,0,0,48,0C256,190.09,240.43,166.23,238.66,163.56ZM232,216a8,8,0,0,1-8-8c0-6.8,4-16.32,8-24.08,4,7.76,8,17.34,8,24.08A8,8,0,0,1,232,216Zm2.53-76.93a8,8,0,0,0,3.13-13.24L122.17,10.34a8,8,0,0,0-11.31,0L70.25,51,45.65,26.34A8,8,0,0,0,34.34,37.66l24.6,24.6L15,106.17a24,24,0,0,0,0,33.94L99.89,225a24,24,0,0,0,33.94,0l78.49-78.49Zm-32.19-5.24-79.83,79.83a8,8,0,0,1-11.31,0L26.34,128.8a8,8,0,0,1,0-11.31L70.25,73.57l29.12,29.12a28,28,0,1,0,11.31-11.32L81.57,62.26l35-34.95L217.19,128l-11.72,3.9A8.09,8.09,0,0,0,202.34,133.83Zm-86.83-26.31,0,0a13.26,13.26,0,1,1-.05.06S115.51,107.53,115.51,107.52Z"></path>
    </symbol>
    <symbol id="arrow-counter-clockwise" fill="currentcolor" viewBox="0 0 256 256">
        <path d="M216,128a88,88,0,1,1-88-88A88,88,0,0,1,216,128Z" opacity="0.2"></path>
        <path d="M224,128a96,96,0,0,1-94.71,96H128A95.38,95.38,0,0,1,62.1,197.8a8,8,0,0,1,11-11.63A80,80,0,1,0,71.43,71.39a3.07,3.07,0,0,1-.26.25L44.59,96H72a8,8,0,0,1,0,16H24a8,8,0,0,1-8-8V56a8,8,0,0,1,16,0V85.8L60.25,60A96,96,0,0,1,224,128Z"></path>
    </symbol>
    <symbol id="trash" fill="currentcolor" viewBox="0 0 256 256">
        <path d="M200,56V208a8,8,0,0,1-8,8H64a8,8,0,0,1-8-8V56Z" opacity="0.2"></path>
        <path d="M216,48H176V40a24,24,0,0,0-24-24H104A24,24,0,0,0,80,40v8H40a8,8,0,0,0,0,16h8V208a16,16,0,0,0,16,16H192a16,16,0,0,0,16-16V64h8a8,8,0,0,0,0-16ZM96,40a8,8,0,0,1,8-8h48a8,8,0,0,1,8,8v8H96Zm96,168H64V64H192ZM112,104v64a8,8,0,0,1-16,0V104a8,8,0,0,1,16,0Zm48,0v64a8,8,0,0,1-16,0V104a8,8,0,0,1,16,0Z"></path>
    </symbol>
    <symbol id="hourglass" fill="currentcolor" viewBox="0 0 256 256">
        <path d="M188.82,82,128,128,67.2,82.4A8,8,0,0,1,64,76V40a8,8,0,0,1,8-8H184a8,8,0,0,1,8,8V75.64A8,8,0,0,1,188.82,82ZM64,180v36a8,8,0,0,0,8,8H184a8,8,0,0,0,8-8V180.36a8,8,0,0,0-3.18-6.38L128,128,67.2,173.6A8,8,0,0,0,64,180Z" opacity="0.2"></path>
        <path d="M200,75.64V40a16,16,0,0,0-16-16H72A16,16,0,0,0,56,40V76a16.07,16.07,0,0,0,6.4,12.8L114.67,128,62.4,167.2A16.07,16.07,0,0,0,56,180v36a16,16,0,0,0,16,16H184a16,16,0,0,0,16-16V180.36a16.09,16.09,0,0,0-6.35-12.77L141.27,128l52.38-39.59A16.09,16.09,0,0,0,200,75.64ZM184,216H72V180l56-42,56,42.35Zm0-140.36L128,118,72,76V40H184Z"></path>
    </symbol>
    <symbol id="warning" fill="currentcolor" viewBox="0 0 256 256">
        <path d="M215.46,216H40.54C27.92,216,20,202.79,26.13,192.09L113.59,40.22c6.3-11,22.52-11,28.82,0l87.46,151.87C236,202.79,228.08,216,215.46,216Z" opacity="0.2"></path>
        <path d="M236.8,188.09,149.35,36.22h0a24.76,24.76,0,0,0-42.7,0L19.2,188.09a23.51,23.51,0,0,0,0,23.72A24.35,24.35,0,0,0,40.55,224h174.9a24.35,24.35,0,0,0,21.33-12.19A23.51,23.51,0,0,0,236.8,188.09ZM222.93,203.8a8.5,8.5,0,0,1-7.48,4.2H40.55a8.5,8.5,0,0,1-7.48-4.2,7.59,7.59,0,0,1,0-7.72L120.52,44.21a8.75,8.75,0,0,1,15,0l87.45,151.87A7.59,7.59,0,0,1,222.93,203.8ZM120,144V104a8,8,0,0,1,16,0v40a8,8,0,0,1-16,0Zm20,36a12,12,0,1,1-12-12A12,12,0,0,1,140,180Z"></path>
    </symbol>
</svg>